<?xml version="1.0" standalone="no"?>
<!DOCTYPE svg PUBLIC "-//W3C//DTD SVG 20010904//EN"
 "http://www.w3.org/TR/2001/REC-SVG-20010904/DTD/svg10.dtd">
<svg version="1.0" xmlns="http://www.w3.org/2000/svg"
 width="184.000000pt" height="170.000000pt" viewBox="0 0 184.000000 170.000000"
 preserveAspectRatio="xMidYMid meet">

<g transform="translate(0.000000,170.000000) scale(0.100000,-0.100000)"
fill="#000000" stroke="none">
<path d="M887 1509 c-20 -35 -72 -131 -116 -214 l-80 -149 71 -136 c39 -74 88
-166 110 -203 21 -38 38 -70 38 -72 0 -2 -30 -8 -67 -15 -292 -50 -549 -244
-687 -518 -15 -30 -26 -55 -24 -57 2 -1 115 0 252 3 l248 5 35 76 c19 42 82
171 140 288 78 157 111 213 127 217 11 3 69 11 127 17 88 9 124 8 214 -5 60
-9 109 -15 110 -13 6 7 -428 802 -450 826 -11 11 -19 2 -48 -50z"/>
<path d="M1276 658 c-92 -48 -216 -146 -216 -170 0 -6 33 -84 73 -174 l72
-164 243 0 c133 0 242 1 242 3 0 15 -292 553 -302 554 -7 2 -57 -21 -112 -49z"/>
</g>
</svg>
